<svg width="30" height="30" viewBox="0 0 30 30" fill="none" xmlns="http://www.w3.org/2000/svg">
<circle cx="15" cy="15" r="15" fill="#2B2D42"/>
<path d="M10.1147 10.4666L9.89253 9.13331H9.0952C8.97627 8.67465 8.5624 8.33331 8.06667 8.33331C7.4784 8.33331 7 8.81171 7 9.39998C7 9.98825 7.4784 10.4666 8.06667 10.4666C8.5624 10.4666 8.97627 10.1253 9.09547 9.66665H9.44053L9.57387 10.4666H9.56373L10.9427 17.4042C10.2853 17.4544 9.73787 17.9605 9.67333 18.5973C9.63547 18.972 9.75867 19.3472 10.0115 19.6261C10.2645 19.9058 10.6251 20.0666 11 20.0666H11.5333C11.5333 20.949 12.2509 21.6666 13.1333 21.6666C14.0157 21.6666 14.7333 20.949 14.7333 20.0666H17.6667C17.6667 20.949 18.3843 21.6666 19.2667 21.6666C20.1491 21.6666 20.8667 20.949 20.8667 20.0666H21.9333C22.0808 20.0666 22.2 19.9474 22.2 19.8C22.2 19.6525 22.0808 19.5333 21.9333 19.5333H20.7733C20.5531 18.9128 19.9619 18.4666 19.2667 18.4666C18.5715 18.4666 17.9803 18.9128 17.76 19.5333H14.64C14.4197 18.9128 13.8285 18.4666 13.1333 18.4666C12.4381 18.4666 11.8469 18.9128 11.6267 19.5333H11C10.7755 19.5333 10.5595 19.4368 10.4069 19.2685C10.2531 19.0981 10.1808 18.8789 10.204 18.6509C10.2445 18.2485 10.6163 17.9336 11.0501 17.9336H11.2611C11.2648 17.9336 11.2677 17.9336 11.2715 17.9336H21.6699C22.4035 17.9333 23 17.3368 23 16.6034V10.4666H10.1147ZM8.06667 9.93331C7.77253 9.93331 7.53333 9.69411 7.53333 9.39998C7.53333 9.10585 7.77253 8.86665 8.06667 8.86665C8.3608 8.86665 8.6 9.10585 8.6 9.39998C8.6 9.69411 8.3608 9.93331 8.06667 9.93331ZM19.2667 19C19.8549 19 20.3333 19.4784 20.3333 20.0666C20.3333 20.6549 19.8549 21.1333 19.2667 21.1333C18.6784 21.1333 18.2 20.6549 18.2 20.0666C18.2 19.4784 18.6784 19 19.2667 19ZM13.1333 19C13.7216 19 14.2 19.4784 14.2 20.0666C14.2 20.6549 13.7216 21.1333 13.1333 21.1333C12.5451 21.1333 12.0667 20.6549 12.0667 20.0666C12.0667 19.4784 12.5451 19 13.1333 19ZM22.4667 16.6034C22.4667 17.0426 22.1093 17.4 21.6701 17.4H11.4856L10.2136 11H22.4667V16.6034Z" fill="white"/>
</svg>
