<svg width="16" height="16" viewBox="0 0 16 16" fill="none" xmlns="http://www.w3.org/2000/svg">
<g clip-path="url(#clip0_112_19)">
<path d="M15.8285 12.1341C15.2329 11.0082 13.1646 9.78732 13.0736 9.73393C12.8078 9.58266 12.5305 9.50257 12.2709 9.50257C11.885 9.50257 11.5691 9.67935 11.3778 10.0009C11.0753 10.3628 10.7001 10.7857 10.609 10.8513C9.90423 11.3294 9.35253 11.2751 8.74209 10.6647L5.33518 7.25749C4.7286 6.65092 4.67284 6.09239 5.14772 5.39149C5.21416 5.29984 5.63713 4.92432 5.999 4.62148C6.22977 4.48414 6.38816 4.28007 6.45757 4.02973C6.54981 3.69663 6.48189 3.3048 6.26417 2.92306C6.21286 2.83526 4.9914 0.76667 3.86604 0.171364C3.65604 0.0601336 3.41934 0.00140381 3.18205 0.00140381C2.79111 0.00140381 2.42331 0.153864 2.14686 0.430012L1.39405 1.18252C0.203442 2.37284 -0.227539 3.72214 0.112382 5.19276C0.395945 6.41837 1.22231 7.72259 2.56895 9.06892L6.93067 13.4306C8.63502 15.135 10.2599 15.9993 11.7602 15.9993C11.7602 15.9993 11.7602 15.9993 11.7604 15.9993C12.8639 15.9993 13.8925 15.5304 14.8171 14.6058L15.5696 13.8533C16.027 13.3962 16.1308 12.7051 15.8285 12.1341Z" fill="#2B2D42"/>
</g>
<defs>
<clipPath id="clip0_112_19">
<rect width="16" height="16" fill="white"/>
</clipPath>
</defs>
</svg>
