<svg width="16" height="16" viewBox="0 0 16 16" fill="none" xmlns="http://www.w3.org/2000/svg">
<g clip-path="url(#clip0_216_57)">
<path d="M15.8285 12.1342C15.2329 11.0082 13.1646 9.78738 13.0736 9.73399C12.8078 9.58272 12.5305 9.50263 12.2709 9.50263C11.885 9.50263 11.5691 9.67941 11.3778 10.0009C11.0753 10.3628 10.7001 10.7858 10.609 10.8513C9.90423 11.3295 9.35253 11.2752 8.74209 10.6648L5.33518 7.25755C4.7286 6.65098 4.67284 6.09245 5.14772 5.39155C5.21416 5.2999 5.63713 4.92438 5.999 4.62154C6.22977 4.48421 6.38816 4.28013 6.45757 4.02979C6.54981 3.69669 6.48189 3.30486 6.26417 2.92312C6.21286 2.83532 4.9914 0.766731 3.86604 0.171425C3.65604 0.0601946 3.41934 0.00146484 3.18205 0.00146484C2.79111 0.00146484 2.42331 0.153925 2.14686 0.430073L1.39405 1.18259C0.203442 2.3729 -0.227539 3.7222 0.112382 5.19282C0.395945 6.41843 1.22231 7.72265 2.56895 9.06898L6.93067 13.4307C8.63502 15.1351 10.2599 15.9994 11.7602 15.9994C11.7602 15.9994 11.7602 15.9994 11.7604 15.9994C12.8639 15.9994 13.8925 15.5304 14.8171 14.6059L15.5696 13.8534C16.027 13.3963 16.1308 12.7052 15.8285 12.1342Z" fill="white"/>
</g>
<defs>
<clipPath id="clip0_216_57">
<rect width="16" height="16" fill="white"/>
</clipPath>
</defs>
</svg>
